#tb 0: 1/25
0,          0,          0,        1,   405504, 0x42f434a6
0,          1,          1,        1,   405504, 0x9e7eb468
0,          2,          2,        1,   405504, 0xcad920cc
0,          3,          3,        1,   405504, 0x0c079acb
0,          4,          4,        1,   405504, 0xf31cbd03
0,          5,          5,        1,   405504, 0x19eb3488
0,          6,          6,        1,   405504, 0x5aafdb12
0,          7,          7,        1,   405504, 0xc0018f08
0,          8,          8,        1,   405504, 0x2e4df8b1
0,          9,          9,        1,   405504, 0xd7b7abe0
0,         10,         10,        1,   405504, 0xa4525378
0,         11,         11,        1,   405504, 0x5752931e
0,         12,         12,        1,   405504, 0xaf53d44c
0,         13,         13,        1,   405504, 0xedfdd248
0,         14,         14,        1,   405504, 0xac8b7d5c
0,         15,         15,        1,   405504, 0x118b95ef
0,         16,         16,        1,   405504, 0xa7635fe9
0,         17,         17,        1,   405504, 0x457d1492
0,         18,         18,        1,   405504, 0x4695141c
0,         19,         19,        1,   405504, 0xfe29184f
0,         20,         20,        1,   405504, 0xcdaa6f1d
0,         21,         21,        1,   405504, 0xe69739ae
0,         22,         22,        1,   405504, 0x06e01db7
0,         23,         23,        1,   405504, 0xdecb4fcf
0,         24,         24,        1,   405504, 0xae6faec7
0,         25,         25,        1,   405504, 0x43ba1609
0,         26,         26,        1,   405504, 0xb6280a41
0,         27,         27,        1,   405504, 0xf8604f4a
0,         28,         28,        1,   405504, 0x36874db6
0,         29,         29,        1,   405504, 0x66bed0d7
0,         30,         30,        1,   405504, 0x136b1d8f
0,         31,         31,        1,   405504, 0x5b740a9b
0,         32,         32,        1,   405504, 0x02617fc5
0,         33,         33,        1,   405504, 0x12819730
0,         34,         34,        1,   405504, 0xc3f8377b
0,         35,         35,        1,   405504, 0x8b8f9c97
0,         36,         36,        1,   405504, 0xf08f9cee
0,         37,         37,        1,   405504, 0x19e16387
0,         38,         38,        1,   405504, 0x976601a1
0,         39,         39,        1,   405504, 0xa8350aa5
0,         40,         40,        1,   405504, 0x671d2f83
0,         41,         41,        1,   405504, 0xfd3c4a1d
0,         42,         42,        1,   405504, 0x9074f9ee
0,         43,         43,        1,   405504, 0x132fa190
0,         44,         44,        1,   405504, 0x8e3c229d
0,         45,         45,        1,   405504, 0x8202aee0
0,         46,         46,        1,   405504, 0x5d5adf1a
0,         47,         47,        1,   405504, 0x4e03a394
0,         48,         48,        1,   405504, 0xbae3ee9e
0,         49,         49,        1,   405504, 0x28f290fe
